<svg width="28" height="28" viewBox="0 0 28 28" fill="none" xmlns="http://www.w3.org/2000/svg">
<g id="Iconly/Bold/Discount">
<g id="Discount">
<path id="Discount_2" fill-rule="evenodd" clip-rule="evenodd" d="M23.799 10.6703L24.6393 11.5103C25.3045 12.1636 25.6663 13.0503 25.6663 13.9836C25.678 14.9169 25.3162 15.8048 24.6626 16.4686C24.6548 16.4771 24.6471 16.4847 24.6393 16.4922C24.6354 16.4959 24.6315 16.4997 24.6276 16.5036L23.799 17.3319C23.4722 17.6586 23.2854 18.1019 23.2854 18.5698V19.7703C23.2854 21.7069 21.7099 23.2831 19.7725 23.2831H18.5704C18.1036 23.2831 17.6601 23.4686 17.3333 23.7953L16.493 24.6353C15.8044 25.3248 14.9057 25.6619 14.0071 25.6619C13.1084 25.6619 12.2098 25.3248 11.5212 24.6481L10.6692 23.7953C10.3424 23.4686 9.89893 23.2831 9.43209 23.2831H8.22999C6.29262 23.2831 4.71705 21.7069 4.71705 19.7703V18.5698C4.71705 18.1019 4.53032 17.6586 4.20353 17.3203L3.36323 16.4919C1.99773 15.1281 1.98606 12.8986 3.35156 11.5231L4.20353 10.6703C4.53032 10.3436 4.71705 9.90026 4.71705 9.42193V8.23193C4.71705 6.29526 6.29262 4.72143 8.22999 4.72143H9.43209C9.89893 4.72143 10.3424 4.53359 10.6692 4.20693L11.5095 3.36693C12.875 1.99143 15.1041 1.99143 16.4813 3.35643L17.3333 4.20693C17.6601 4.53359 18.1036 4.72143 18.5704 4.72143H19.7725C21.7099 4.72143 23.2854 6.29526 23.2854 8.23193V9.43476C23.2854 9.90026 23.4722 10.3436 23.799 10.6703ZM10.996 18.0203C11.2761 18.0203 11.5329 17.9153 11.7196 17.7169L17.7185 11.7214C18.1153 11.3248 18.1153 10.6703 17.7185 10.2736C17.3216 9.87812 16.6797 9.87812 16.2829 10.2736L10.2841 16.2703C9.88729 16.6669 9.88729 17.3203 10.2841 17.7169C10.4708 17.9153 10.7276 18.0203 10.996 18.0203ZM15.9795 16.9936C15.9795 17.5652 16.4346 18.0202 17.0065 18.0202C17.5667 18.0202 18.0219 17.5652 18.0219 16.9936C18.0219 16.4347 17.5667 15.9786 17.0065 15.9786C16.4346 15.9786 15.9795 16.4347 15.9795 16.9936ZM11.0076 9.98189C11.5678 9.98189 12.023 10.4369 12.023 10.9969C12.023 11.5697 11.5678 12.0236 11.0076 12.0236C10.4474 12.0236 9.98059 11.5697 9.98059 10.9969C9.98059 10.4369 10.4474 9.98189 11.0076 9.98189Z" fill="#51A690"/>
</g>
</g>
</svg>
