<svg width="28" height="28" viewBox="0 0 28 28" fill="none" xmlns="http://www.w3.org/2000/svg">
<g id="Iconly/Bold/3 User">
<g id="3 User">
<path id="3 Friends" fill-rule="evenodd" clip-rule="evenodd" d="M18.8515 9.60483C18.8515 12.3461 16.6661 14.5442 13.9406 14.5442C11.2152 14.5442 9.02978 12.3461 9.02978 9.60483C9.02978 6.86248 11.2152 4.6665 13.9406 4.6665C16.6661 4.6665 18.8515 6.86248 18.8515 9.60483ZM13.9406 23.3332C9.93754 23.3332 6.51949 22.6985 6.51949 20.16C6.51949 17.6205 9.9156 16.9627 13.9406 16.9627C17.9436 16.9627 21.3617 17.5973 21.3617 20.1369C21.3617 22.6754 17.9656 23.3332 13.9406 23.3332ZM20.9501 9.69396C20.9501 11.0914 20.5332 12.3932 19.802 13.4755C19.7268 13.5868 19.7936 13.7371 19.9263 13.7602C20.1091 13.7917 20.2982 13.8096 20.4904 13.8148C22.4073 13.8653 24.1278 12.6244 24.6031 10.7562C25.3072 7.9813 23.2399 5.49008 20.6074 5.49008C20.3212 5.49008 20.0475 5.52055 19.7811 5.57518C19.7445 5.58359 19.7059 5.6004 19.685 5.63297C19.6599 5.6729 19.6787 5.72648 19.7038 5.76116C20.4946 6.87596 20.9501 8.23557 20.9501 9.69396ZM24.1247 15.7645C25.4127 16.0177 26.2599 16.5347 26.6109 17.2859C26.9076 17.9027 26.9076 18.6182 26.6109 19.2339C26.074 20.3992 24.343 20.7732 23.6703 20.8699C23.5313 20.8909 23.4196 20.7701 23.4342 20.6303C23.7779 17.4015 21.0441 15.8706 20.3368 15.5186C20.3065 15.5029 20.3003 15.4787 20.3034 15.464C20.3055 15.4535 20.318 15.4367 20.341 15.4335C21.8714 15.4051 23.5167 15.6153 24.1247 15.7645ZM7.51006 13.8147C7.70227 13.8094 7.8903 13.7926 8.07416 13.76C8.20683 13.7369 8.27368 13.5867 8.19847 13.4753C7.46723 12.3931 7.05042 11.0912 7.05042 9.69379C7.05042 8.2354 7.50588 6.87579 8.29667 5.76099C8.32174 5.72631 8.3395 5.67273 8.31547 5.6328C8.29458 5.60128 8.25488 5.58342 8.21936 5.57501C7.95194 5.52037 7.67824 5.4899 7.39201 5.4899C4.75953 5.4899 2.69219 7.98113 3.39732 10.7561C3.87263 12.6242 5.59315 13.8651 7.51006 13.8147ZM7.69651 15.4634C7.69964 15.4791 7.69338 15.5023 7.66413 15.5191C6.95586 15.871 4.22205 17.4019 4.56573 20.6297C4.58036 20.7705 4.46963 20.8903 4.33069 20.8703C3.65795 20.7737 1.92698 20.3996 1.39004 19.2344C1.09232 18.6176 1.09232 17.9031 1.39004 17.2864C1.74104 16.5351 2.58719 16.0181 3.87523 15.7639C4.48425 15.6157 6.12851 15.4056 7.65995 15.434C7.68293 15.4371 7.69442 15.4539 7.69651 15.4634Z" fill="#FFCF00"/>
</g>
</g>
</svg>
