<svg width="26" height="26" viewBox="0 0 26 26" fill="none" xmlns="http://www.w3.org/2000/svg">
<g clip-path="url(#clip0)">
<path d="M12.7537 8.62219C10.1707 8.62219 8.06616 10.7267 8.06616 13.3097C8.06616 15.8927 10.1707 17.9972 12.7537 17.9972C15.3367 17.9972 17.4412 15.8927 17.4412 13.3097C17.4412 10.7267 15.3367 8.62219 12.7537 8.62219ZM24.7849 12.5529L20.1609 10.2433L21.7966 5.34094C22.0164 4.67688 21.3865 4.047 20.7273 4.27161L15.8249 5.90735L13.5105 1.27844C13.198 0.653442 12.3093 0.653442 11.9968 1.27844L9.68725 5.90247L4.78003 4.26672C4.11597 4.047 3.48608 4.67688 3.71069 5.33606L5.34644 10.2384L0.722412 12.5529C0.0974121 12.8654 0.0974121 13.754 0.722412 14.0665L5.34644 16.3761L3.71069 21.2833C3.49097 21.9474 4.12085 22.5773 4.78003 22.3527L9.68237 20.7169L11.9919 25.3409C12.3044 25.9659 13.1931 25.9659 13.5056 25.3409L15.8152 20.7169L20.7175 22.3527C21.3816 22.5724 22.0115 21.9425 21.7869 21.2833L20.1511 16.381L24.7751 14.0714C25.4099 13.754 25.4099 12.8654 24.7849 12.5529V12.5529ZM17.1726 17.7286C14.7361 20.1652 10.7712 20.1652 8.33472 17.7286C5.89819 15.2921 5.89819 11.3273 8.33472 8.89075C10.7712 6.45422 14.7361 6.45422 17.1726 8.89075C19.6091 11.3273 19.6091 15.2921 17.1726 17.7286Z" fill="#E99229"/>
</g>
<defs>
<clipPath id="clip0">
<rect width="25" height="25" fill="white" transform="translate(0.253662 0.809692)"/>
</clipPath>
</defs>
</svg>
